<svg width="200" height="200" viewBox="0 0 200 200" xmlns="http://www.w3.org/2000/svg">
  <defs>
    <linearGradient id="anaLauraBg" x1="0%" y1="0%" x2="100%" y2="100%">
      <stop offset="0%" style="stop-color:#8B7355;stop-opacity:1" />
      <stop offset="100%" style="stop-color:#6B5A47;stop-opacity:1" />
    </linearGradient>
    <linearGradient id="anaLauraSkin" x1="0%" y1="0%" x2="100%" y2="100%">
      <stop offset="0%" style="stop-color:#E8D4B8;stop-opacity:1" />
      <stop offset="100%" style="stop-color:#D4C4A8;stop-opacity:1" />
    </linearGradient>
  </defs>
  <circle cx="100" cy="100" r="100" fill="url(#anaLauraBg)"/>
  <!-- Cabelo -->
  <path d="M 55 70 Q 60 50, 75 55 Q 85 60, 100 58 Q 115 60, 125 55 Q 140 50, 145 70 Q 150 85, 148 100 Q 150 115, 145 130 Q 140 150, 125 145 Q 115 140, 100 142 Q 85 140, 75 145 Q 60 150, 55 130 Q 50 115, 52 100 Q 50 85, 55 70 Z" fill="#1A0F08"/>
  <ellipse cx="100" cy="80" rx="42" ry="48" fill="#1A0F08"/>
  <!-- Rosto -->
  <ellipse cx="100" cy="88" rx="36" ry="40" fill="url(#anaLauraSkin)"/>
  <!-- Olhos -->
  <ellipse cx="90" cy="83" rx="4.5" ry="6" fill="#1A0F08"/>
  <ellipse cx="110" cy="83" rx="4.5" ry="6" fill="#1A0F08"/>
  <ellipse cx="90" cy="82" rx="2" ry="3" fill="#FFFFFF"/>
  <ellipse cx="110" cy="82" rx="2" ry="3" fill="#FFFFFF"/>
  <!-- Sobrancelhas -->
  <path d="M 78 78 Q 88 75, 97 79" stroke="#1A0F08" stroke-width="3" fill="none" stroke-linecap="round"/>
  <path d="M 103 79 Q 112 75, 122 78" stroke="#1A0F08" stroke-width="3" fill="none" stroke-linecap="round"/>
  <!-- Nariz -->
  <ellipse cx="100" cy="92" rx="3" ry="4" fill="#C4B4A0" opacity="0.4"/>
  <!-- Boca -->
  <path d="M 94 100 Q 100 105, 106 100" stroke="#7A6348" stroke-width="2.5" fill="none" stroke-linecap="round"/>
  <!-- Corpo/Blusa -->
  <path d="M 45 128 Q 45 108, 65 108 Q 82 108, 100 118 Q 118 108, 135 108 Q 155 108, 155 128 L 155 185 Q 155 195, 145 195 L 55 195 Q 45 195, 45 185 Z" fill="#2C1810"/>
  <ellipse cx="100" cy="140" rx="25" ry="15" fill="#1A0F08" opacity="0.3"/>
</svg>
