<svg width="200" height="200" viewBox="0 0 200 200" xmlns="http://www.w3.org/2000/svg">
  <defs>
    <linearGradient id="denisBg" x1="0%" y1="0%" x2="100%" y2="100%">
      <stop offset="0%" style="stop-color:#6B5A47;stop-opacity:1" />
      <stop offset="100%" style="stop-color:#4A3D2F;stop-opacity:1" />
    </linearGradient>
    <linearGradient id="denisSkin" x1="0%" y1="0%" x2="100%" y2="100%">
      <stop offset="0%" style="stop-color:#D4C4A8;stop-opacity:1" />
      <stop offset="100%" style="stop-color:#C4B498;stop-opacity:1" />
    </linearGradient>
  </defs>
  <circle cx="100" cy="100" r="100" fill="url(#denisBg)"/>
  <!-- Cabelo -->
  <ellipse cx="100" cy="70" rx="40" ry="35" fill="#2C1810"/>
  <rect x="75" y="70" width="50" height="25" rx="5" fill="#2C1810"/>
  <!-- Rosto -->
  <ellipse cx="100" cy="90" rx="32" ry="36" fill="url(#denisSkin)"/>
  <!-- Olhos -->
  <ellipse cx="92" cy="85" rx="3.5" ry="5" fill="#2C1810"/>
  <ellipse cx="108" cy="85" rx="3.5" ry="5" fill="#2C1810"/>
  <ellipse cx="92" cy="84" rx="1.5" ry="2.5" fill="#FFFFFF"/>
  <ellipse cx="108" cy="84" rx="1.5" ry="2.5" fill="#FFFFFF"/>
  <!-- Sobrancelhas -->
  <rect x="85" y="78" width="14" height="3" rx="1.5" fill="#2C1810"/>
  <rect x="101" y="78" width="14" height="3" rx="1.5" fill="#2C1810"/>
  <!-- Nariz -->
  <ellipse cx="100" cy="92" rx="2.5" ry="3.5" fill="#B4A488" opacity="0.4"/>
  <!-- Boca -->
  <path d="M 96 98 Q 100 101, 104 98" stroke="#5C4A35" stroke-width="2" fill="none" stroke-linecap="round"/>
  <!-- Bigode -->
  <path d="M 88 96 Q 100 98, 112 96" stroke="#2C1810" stroke-width="3" fill="none" stroke-linecap="round"/>
  <!-- Paletó -->
  <path d="M 50 120 Q 50 105, 65 105 Q 80 105, 100 115 Q 120 105, 135 105 Q 150 105, 150 120 L 150 185 Q 150 195, 140 195 L 60 195 Q 50 195, 50 185 Z" fill="#1A0F08"/>
  <!-- Gravata -->
  <rect x="95" y="120" width="10" height="65" rx="2" fill="#2C1810"/>
  <path d="M 95 120 Q 100 125, 105 120" fill="#3D2817"/>
  <!-- Camisa -->
  <rect x="70" y="120" width="60" height="70" rx="2" fill="#F5F5F0"/>
  <rect x="95" y="120" width="10" height="70" fill="#2C1810"/>
</svg>
