<svg xmlns="http://www.w3.org/2000/svg" width="150" height="150" viewBox="0 0 150 150">
<g>
<path d="M 60.43 108.11 C59.53,109.57 58.59,109.19 52.75,105.01 C46.07,100.22 39.72,91.17 37.99,83.96 C36.07,75.95 37.13,64.64 40.45,57.66 C45.79,46.44 58.27,37.55 70.44,36.29 C75.68,35.75 76.17,35.87 75.85,37.56 C75.61,38.78 74.22,39.68 71.73,40.19 C50.73,44.56 36.22,72.85 44.90,92.51 C47.03,97.33 55.21,105.76 58.57,106.61 C59.90,106.94 60.74,107.62 60.43,108.11 ZM 91.53 108.65 C84.28,112.13 82.00,112.70 82.00,111.00 C82.00,110.45 82.56,110.00 83.25,109.99 C85.84,109.97 95.63,104.76 98.84,101.69 C103.19,97.54 107.53,88.91 109.10,81.28 C110.71,73.51 109.08,63.49 104.85,55.01 C101.62,48.55 97.90,44.90 91.28,41.68 C86.77,39.49 85.42,37.39 89.25,38.54 C93.44,39.79 101.06,45.24 104.48,49.41 C120.44,68.89 114.12,97.79 91.53,108.65 ZM 77.81 109.97 C74.31,112.11 67.55,112.65 65.00,111.00 C63.90,110.29 64.62,110.03 67.69,110.02 C76.44,109.98 78.88,104.84 78.96,86.25 L 79.00 76.00 L 84.00 76.00 L 84.00 88.53 C84.00,102.95 82.86,106.90 77.81,109.97 ZM 84.00 55.00 L 84.00 73.00 L 79.00 73.00 L 79.00 54.39 C79.00,37.84 79.17,35.85 80.58,36.39 C81.45,36.73 82.58,37.00 83.08,37.00 C83.61,37.00 84.00,44.74 84.00,55.00 Z" fill="rgb(136,119,103)"/>
<path d="M 0.00 75.00 L 0.00 0.00 L 75.00 0.00 L 150.00 0.00 L 150.00 75.00 L 150.00 150.00 L 75.00 150.00 L 0.00 150.00 L 0.00 75.00 ZM 77.81 109.97 C82.86,106.90 84.00,102.95 84.00,88.53 L 84.00 76.00 L 81.50 76.00 L 79.00 76.00 L 78.96 86.25 C78.88,104.84 76.44,109.98 67.69,110.02 C64.62,110.03 63.90,110.29 65.00,111.00 C67.55,112.65 74.31,112.11 77.81,109.97 ZM 91.53 108.65 C114.12,97.79 120.44,68.89 104.48,49.41 C101.06,45.24 93.44,39.79 89.25,38.54 C85.42,37.39 86.77,39.49 91.28,41.68 C97.90,44.90 101.62,48.55 104.85,55.01 C109.08,63.49 110.71,73.51 109.10,81.28 C107.53,88.91 103.19,97.54 98.84,101.69 C95.63,104.76 85.84,109.97 83.25,109.99 C82.56,110.00 82.00,110.45 82.00,111.00 C82.00,112.70 84.28,112.13 91.53,108.65 ZM 60.43 108.11 C60.74,107.62 59.90,106.94 58.57,106.61 C55.21,105.76 47.03,97.33 44.90,92.51 C36.22,72.85 50.73,44.56 71.73,40.19 C74.22,39.68 75.61,38.78 75.85,37.56 C76.17,35.87 75.68,35.75 70.44,36.29 C58.27,37.55 45.79,46.44 40.45,57.66 C37.13,64.64 36.07,75.95 37.99,83.96 C39.72,91.17 46.07,100.22 52.75,105.01 C58.59,109.19 59.53,109.57 60.43,108.11 ZM 84.00 55.00 C84.00,44.74 83.61,37.00 83.08,37.00 C82.58,37.00 81.45,36.73 80.58,36.39 C79.17,35.85 79.00,37.84 79.00,54.39 L 79.00 73.00 L 81.50 73.00 L 84.00 73.00 L 84.00 55.00 Z" fill="rgb(226,209,194)"/>
</g>
</svg>